<?xml version="1.0" encoding="UTF-8"?>
<svg id="Layer_1" data-name="Layer 1" xmlns="http://www.w3.org/2000/svg" viewBox="0 0 1766.33 525">
  <defs>
    <style>
      .cls-1 {
        stroke-width: 2.98px;
      }

      .cls-1, .cls-2, .cls-3 {
        fill: none;
        stroke: #ebb46b;
        stroke-miterlimit: 10;
      }

      .cls-2 {
        stroke-width: 7.61px;
      }

      .cls-4 {
        fill: #fff;
      }

      .cls-5 {
        fill: #e8b068;
      }

      .cls-6 {
        fill: #08203a;
      }

      .cls-3 {
        stroke-width: 5.08px;
      }

      .cls-7 {
        fill: #515151;
      }

      .cls-8 {
        fill: #ebb46b;
      }
    </style>
  </defs>
  <g>
    <circle class="cls-6" cx="261.98" cy="256.72" r="203.3"/>
    <path class="cls-8" d="M89.36,256.72l.18-10.4-9.14,1.43.72-3.41-9.32-7.17,2.33-1.61-1.79-5.92,5.38,1.08,1.43-2.87,4.66,5.02.9-.18-1.97-11.11,3.58,1.79,3.76-6.09,3.58,5.92,3.58-1.43-1.97,10.58.9.72,4.48-5.2,1.61,2.87,5.2-1.08-1.43,5.92,2.33,1.61-9.14,6.99.9,3.76-8.96-1.43.18,10.22h-1.97Z"/>
    <path class="cls-8" d="M433.16,256.72l.18-10.4-9.14,1.43.72-3.41-9.32-7.17,2.33-1.61-1.79-5.92,5.38,1.08,1.43-2.87,4.66,5.02.9-.18-1.97-11.11,3.58,1.79,3.76-6.09,3.58,5.92,3.58-1.43-1.97,10.58.9.72,4.48-5.2,1.61,2.87,5.2-1.08-1.43,5.92,2.33,1.61-9.14,6.99.9,3.76-8.96-1.43.18,10.22h-1.97Z"/>
    <circle class="cls-3" cx="261.98" cy="256.72" r="142.21"/>
    <circle class="cls-2" cx="261.98" cy="256.72" r="215.68"/>
    <g>
      <path class="cls-8" d="M230.39,162.79v136.36c0,7.34-4.89,10.09-8.56,12.23h13.14v-160.81h-13.14c3.67,2.14,8.56,4.89,8.56,12.23Z"/>
      <path class="cls-8" d="M226.19,297.1v-132.26c-.92-11.31-14.67-15.28-24.15-14.06v4.59c10.7,0,16.81,6.11,18.03,11v129.21c-1.22,4.89-7.34,11-18.03,11v4.59c9.48,1.22,23.23-2.75,24.15-14.06Z"/>
      <path class="cls-8" d="M263.71,156.93h34.3c16.69.92,23.18,14.76,25.34,27.98h2.78v-33.83c-22.25,0-45.42-.92-60.87-.31-9.27,0-15.14,7.07-16.38,13.22v133.94c1.24,6.15,7.11,13.22,16.38,13.22,15.45.62,38.63-.31,60.87-.31v-33.83h-2.78c-2.16,13.22-8.65,27.06-25.34,27.98h-34.3c-4.64,0-8.65-3.08-8.65-8v-60.45h27.19c14.83,0,21.01,6.15,22.25,17.22h4.64v-38.75h-4.64c0,8.92-9.58,15.07-17,15.07h-32.45v-65.19c0-4.92,4.02-8,8.65-8Z"/>
      <path class="cls-8" d="M243.89,299.15v-136.36c0-7.34,4.89-10.09,8.56-12.23h-13.14v160.81h13.14c-3.67-2.14-8.56-4.89-8.56-12.23Z"/>
    </g>
    <path class="cls-8" d="M370.91,327.01c1.67-2.21,3.29-4.44,4.85-6.69h-4.97l-11.97,1.11c-59.72,3.05-76.83,20.46-94.74,44.25-17.91-23.79-35.02-41.2-94.74-44.25l-11.97-1.11h-4.97c1.57,2.25,3.19,4.47,4.85,6.69,38.67.52,74.07,6.29,100.35,37.42-24.89-18.74-49.22-27.11-92.33-27.19,1.66,2.06,3.35,4.11,5.04,6.17,31.45.67,58.35,3.59,86.09,28.23-20.65-12.76-37.1-19.7-63.13-19.7h-15.93c1.23,1.5,2.46,3.02,3.69,4.54l1.77,1.57c26.93.83,53.86-.28,81.08,28.3h.39c27.23-28.57,54.16-27.46,81.08-28.3l1.77-1.57c1.23-1.52,2.46-3.03,3.69-4.54h-15.93c-26.03,0-42.49,6.94-63.13,19.7,27.74-24.65,54.64-27.56,86.09-28.23,1.7-2.06,3.38-4.12,5.04-6.17-43.11.09-67.43,8.45-92.33,27.19,26.28-31.13,61.67-36.9,100.35-37.42Z"/>
    <g>
      <path class="cls-4" d="M157.03,129.94c.74,1.13,3.63,6.04,4.3,7.38l-18.03,17.73-1.16-1.18c2.97-3.5,2.97-3.95.06-6.91l-13.51-13.73c-3.02-3.07-3.63-2.86-6.36-.63l-1.18-1.2,11.31-11.12c3.59-3.54,4.85-4.84,5.29-5.34.75.69,3.7,3.35,5.89,5.3l-1.1,1.43c-1.51-.89-3.21-1.59-4.41-1.75-1.47-.27-2.28.08-4.2,1.98l-2.68,2.64c-1.26,1.24-1.3,1.44-.17,2.59l7.45,7.57,3.64-3.58c2.23-2.19,1.99-3.01.05-5.98l1.29-1.26,7.59,7.71-1.29,1.27c-3.09-2.08-3.77-2.2-6.01,0l-3.61,3.55,6.34,6.45c2.42,2.46,3.29,2.71,5.38.72l2.8-2.75c2.05-2.02,2.25-2.75,2.1-4.47-.1-1.73-.72-3.8-1.32-5.5l1.53-.9Z"/>
      <path class="cls-4" d="M191.74,107.54c.65,1.86,2.03,7.12,2.33,8.58l-20.95,12.07-.84-1.46c3.67-2.52,3.86-2.99,1.76-6.63l-9.62-16.69c-2.1-3.64-2.7-3.69-6.18-2.07l-.84-1.46,12.81-7.38.84,1.46c-3.22,2.28-3.51,2.79-1.41,6.45l9.82,17.04c1.42,2.47,2.12,3.28,4.55,1.94.09-.01,2.48-1.37,2.68-1.49,2.37-1.37,2.77-2.17,3.14-3.89.36-1.48.36-3.89.11-6.03l1.8-.43Z"/>
      <path class="cls-4" d="M231.61,94.99c.1,1.35.24,7.04.17,8.54l-24.38,6.73-.44-1.6c4.29-1.61,4.51-2.01,3.41-6.01l-5.13-18.57c-1.15-4.15-1.78-4.27-5.25-3.64l-.45-1.63,15.29-4.22c4.86-1.34,6.59-1.87,7.22-2.1.32.97,1.6,4.73,2.57,7.5l-1.66.71c-.88-1.51-2.03-2.95-3-3.67-1.16-.95-2.03-1.04-4.63-.32l-3.63,1c-1.71.47-1.84.63-1.41,2.18l2.83,10.24,4.93-1.36c3.01-.83,3.21-1.66,2.95-5.21l1.74-.48,2.88,10.43-1.74.48c-1.69-3.32-2.22-3.76-5.25-2.93l-4.88,1.35,2.41,8.71c.92,3.33,1.56,3.97,4.35,3.25l3.78-1.04c2.77-.77,3.31-1.31,4.01-2.88.75-1.56,1.22-3.68,1.52-5.45l1.77-.04Z"/>
      <path class="cls-4" d="M278.5,70.2c-3.3.41-4.24.86-6.07,5.52-1.45,3.65-7.1,17.57-10.3,25.84l-2.36.02c-1.97-5.32-7.78-20.47-10.17-26.47-1.52-3.71-2.24-4.4-5.41-4.68v-1.69s14.3-.09,14.3-.09l-.02,1.69c-3.65.49-3.72.92-2.94,2.92,1.47,3.98,5.23,14.1,7.47,19.83,2.82-6.9,5.68-14.16,7.21-18.48,1.17-3.25.73-3.89-3.42-4.33v-1.69s11.71-.08,11.71-.08v1.69Z"/>
      <path class="cls-4" d="M302.01,106.2l.4-1.64c3.19.34,3.45-.14,3.26-2.3-.14-1.74-.42-4.21-.68-6.73l-9.79-2.41c-1.04,1.58-2.2,3.27-3.16,4.8-1.79,2.83-.9,3.46,2.88,4.8l-.4,1.64-11.68-2.88.4-1.64c3.14.37,4.02.15,6.71-3.6l16.25-22.67,2.15.12c1.02,9.13,2.15,18.74,3.25,27.69.62,4.82.97,5.28,4.12,6.47l-.4,1.64-13.3-3.28ZM303.48,81.04c-2.37,3.36-4.73,6.65-6.92,9.96l8.17,2.02-1.25-11.98Z"/>
      <path class="cls-4" d="M358.03,104.25c.51-2.05.55-4.08.46-5-.22-1.42-.42-1.96-2.95-3.31l-3.37-1.8-11.18,20.92c-1.92,3.6-1.7,4.16,2.15,6.59l-.79,1.49-13.96-7.46.8-1.49c4.02,1.77,4.57,1.65,6.5-1.97l11.18-20.92-3.14-1.68c-2.45-1.31-3.34-1.33-4.75-.62-1.04.54-2.31,1.66-3.79,3.06l-1.55-.83c1.91-2.87,3.91-5.91,5.21-8.09l1.21.65c.11,1.38.6,1.69,1.89,2.38l17.52,9.36c1.2.64,1.85.69,3.01.24l1.2.64c-1,1.94-2.76,5.65-4.01,8.52l-1.62-.7Z"/>
      <path class="cls-4" d="M384.58,146.93c-1.1.79-5.89,3.86-7.21,4.58l-18.42-17.33,1.13-1.21c3.61,2.83,4.06,2.81,6.91-.21l13.2-14.03c2.95-3.14,2.72-3.74.38-6.38l1.16-1.23,11.55,10.87c3.67,3.46,5.03,4.66,5.54,5.08-.66.78-3.21,3.82-5.07,6.1l-1.47-1.04c.83-1.54,1.47-3.27,1.58-4.47.21-1.48-.17-2.28-2.14-4.12l-2.74-2.58c-1.29-1.21-1.49-1.24-2.59-.07l-7.28,7.74,3.72,3.5c2.27,2.14,3.09,1.88,5.98-.18l1.31,1.24-7.41,7.88-1.31-1.24c1.96-3.17,2.06-3.85-.23-6l-3.69-3.47-6.2,6.59c-2.37,2.52-2.58,3.39-.52,5.4l2.86,2.69c2.1,1.97,2.84,2.14,4.55,1.93,1.73-.17,3.78-.87,5.44-1.53l.96,1.49Z"/>
    </g>
    <g>
      <path class="cls-5" d="M78.71,275.75l1.07-.14c.57,2.44.77,2.7,3.44,2.35l12.25-1.6c2.68-.35,2.85-.67,2.76-3.15l1.07-.14,1.22,9.34-1.07.14c-.57-2.43-.79-2.7-3.48-2.35l-12.25,1.6c-2.66.35-2.78.64-2.72,3.16l-1.07.14-1.22-9.34Z"/>
      <path class="cls-5" d="M105.38,308.4c-.72-1.86-1.25-2.38-2.68-2.11-1.15.21-2.31.42-5.07,1.12l-12.36,3.14-.39-1.54,12.42-17.03-7.26,1.84c-2.73.69-3.98,1.09-4.86,1.4-1.41.47-1.86,1.32-1.43,3.63l-1.05.27-1.94-7.62,1.05-.27c.62,1.78,1.27,2.42,2.79,2.21,1.1-.16,2.33-.4,5.06-1.1l7.53-1.91c.97-.24,1.57-.46,2.18-1.23.63-.77.58-1.51.36-2.92l1.05-.27,1.41,5.55-11.25,15.91,6.28-1.59c2.76-.7,3.88-1.03,4.92-1.39,1.33-.44,1.76-1.15,1.27-3.73l1.05-.27,1.94,7.65-1.05.27Z"/>
      <path class="cls-5" d="M109.5,329.59c1.09-.81,1.93-1.8,2.25-2.3.47-.79.59-1.14-.12-2.84l-.94-2.26-14.03,5.86c-2.41,1.01-2.53,1.38-1.6,4.15l-1,.42-3.91-9.37,1-.42c1.28,2.51,1.6,2.67,4.03,1.66l14.03-5.86-.88-2.11c-.69-1.64-1.12-2.01-2.11-2.23-.73-.15-1.82-.11-3.13-.02l-.43-1.04c2.11-.65,4.34-1.35,5.86-1.91l.34.81c-.5.73-.39,1.09-.03,1.95l4.91,11.75c.34.81.64,1.09,1.4,1.34l.34.8c-1.28.56-3.66,1.69-5.44,2.61l-.52-1Z"/>
      <path class="cls-5" d="M111.81,354.4c-.82.28-4.33,1.29-5.27,1.5l-8.14-14.02.92-.53c1.7,2.4,1.98,2.47,4.28,1.13l10.68-6.2c2.39-1.39,2.36-1.8,1.4-3.85l.94-.54,5.11,8.79c1.62,2.79,2.24,3.78,2.48,4.14-.55.35-2.67,1.76-4.23,2.81l-.71-.91c.79-.79,1.5-1.74,1.79-2.46.4-.87.31-1.43-.56-2.93l-1.21-2.09c-.57-.98-.69-1.04-1.58-.52l-5.89,3.42,1.65,2.83c1.01,1.73,1.55,1.72,3.71.98l.58,1-6,3.48-.58-1c1.79-1.59,1.97-1.99.96-3.73l-1.63-2.81-5.01,2.91c-1.92,1.11-2.21,1.62-1.31,3.23l1.26,2.17c.93,1.6,1.35,1.84,2.44,2.02,1.09.21,2.48.16,3.62.06l.32,1.09Z"/>
      <path class="cls-5" d="M122.37,377.73c-.16-.21-.38-.52-.6-.85-1.96-2.85-2.08-4.27-1.52-6.11.6-2.03,1.55-4.03,2.34-5.98.4-.99.29-1.45-.47-2.43l-.48-.65-3.79,2.92c-2.09,1.61-2.04,1.99-.77,4.1l-.86.66-5.7-7.4.86-.66c1.74,1.83,2.07,1.91,4.16.3l9.84-7.57c2.05-1.58,2.06-2,.75-4.07l.86-.66,5.41,7.03c1.63,2.11,2.36,3.57,2.46,5.11.11,1.54-.49,3.09-2.05,4.29-2.23,1.71-4.6,1.22-6.65.03-.46,1-1.33,3.3-1.9,4.95-.68,1.96-.94,3-1.12,3.97-.21,1.15-.14,1.71.16,2.55l-.92.47ZM123.29,361.83c.9,1.17,1.73,1.86,2.68,2.06,1.4.34,2.67-.04,3.99-1.06,2.69-2.07,2.41-4.46,1.17-6.06-.54-.7-.92-.99-1.2-1.03-.31-.07-.64.09-1.2.52l-6.11,4.7.67.87Z"/>
      <path class="cls-5" d="M155.81,382.89c-1.6-1.2-2.31-1.37-3.39-.39-.86.79-1.74,1.58-3.72,3.62l-8.86,9.17-1.14-1.1,1.6-21.02-5.2,5.39c-1.95,2.02-2.81,3.02-3.39,3.75-.96,1.14-.89,2.1.69,3.84l-.75.78-5.66-5.46.75-.78c1.46,1.19,2.36,1.39,3.54.41.85-.71,1.77-1.57,3.73-3.6l5.4-5.59c.69-.72,1.09-1.22,1.21-2.2.13-.98-.3-1.58-1.23-2.67l.75-.78,4.12,3.98-1.2,19.45,4.5-4.66c1.98-2.05,2.76-2.92,3.45-3.78.9-1.07.89-1.91-.88-3.84l.75-.78,5.68,5.48-.75.78Z"/>
      <path class="cls-5" d="M155.65,407.12l.63-.88c1.81.97,2.08.74,2.49-.59.33-1.06.76-2.6,1.21-4.17l-5.24-3.78c-1,.69-2.09,1.42-3.03,2.1-1.74,1.25-1.36,1.84.56,3.55l-.63.88-6.25-4.51.63-.88c1.78.97,2.35,1.05,4.85-.54l15.1-9.58,1.25.59c-1.58,5.67-3.21,11.66-4.71,17.24-.79,3.01-.69,3.37.9,4.84l-.63.88-7.12-5.14ZM162.56,392.51c-2.22,1.43-4.41,2.82-6.5,4.27l4.37,3.15,2.13-7.42Z"/>
      <path class="cls-5" d="M187.54,408.41c.35-1.31.39-2.61.34-3.2-.13-.91-.25-1.26-1.86-2.15l-2.14-1.18-7.37,13.3c-1.27,2.29-1.13,2.65,1.31,4.24l-.52.95-8.88-4.91.52-.95c2.56,1.17,2.91,1.1,4.19-1.2l7.37-13.3-2-1.11c-1.56-.86-2.12-.89-3.04-.44-.67.34-1.5,1.04-2.46,1.93l-.98-.55c1.25-1.82,2.56-3.75,3.41-5.13l.77.43c.06.88.37,1.09,1.19,1.54l11.14,6.17c.76.42,1.18.46,1.93.18l.76.42c-.66,1.23-1.82,3.6-2.65,5.42l-1.03-.46Z"/>
      <path class="cls-5" d="M186.63,424.85l.42-1c2.4.74,2.72.69,3.76-1.8l4.77-11.39c1.05-2.5.85-2.8-1.34-3.97l.42-1,8.68,3.64-.42,1c-2.39-.73-2.73-.67-3.78,1.82l-4.77,11.39c-1.04,2.48-.84,2.73,1.37,3.94l-.42,1-8.68-3.64Z"/>
      <path class="cls-5" d="M217.93,413.65c5.54,1.57,9.03,6.99,7.31,13.07-1.86,6.57-7.63,9.38-13.39,7.75-6.06-1.72-9.19-7.45-7.53-13.33,1.51-5.34,6.78-9.43,13.6-7.49ZM217.05,414.78c-3.24-.92-6.69,1.36-8.26,6.9-1.52,5.38-.32,10.44,3.9,11.63,3.2.91,6.45-1.2,8.07-6.94,1.76-6.21.01-10.54-3.71-11.6Z"/>
      <path class="cls-5" d="M253.71,421.45c-2,0-2.67.31-2.94,1.74-.21,1.15-.44,2.31-.78,5.13l-1.52,12.66-1.58-.19-11.41-17.72-.9,7.43c-.34,2.79-.42,4.11-.45,5.04-.07,1.49.56,2.21,2.87,2.64l-.13,1.07-7.81-.94.13-1.07c1.88.07,2.72-.32,3.07-1.81.25-1.08.46-2.32.8-5.12l.93-7.71c.12-.99.13-1.63-.37-2.48-.49-.86-1.2-1.08-2.59-1.39l.13-1.07,5.69.68,10.79,16.23.77-6.43c.34-2.82.44-3.99.47-5.1.07-1.4-.44-2.06-3.02-2.53l.13-1.07,7.83.94-.13,1.07Z"/>
      <path class="cls-5" d="M268.24,440.83l-.03-1.08c2.03-.33,2.11-.67,1.63-1.97-.38-1.05-.97-2.53-1.56-4.05l-6.46.16c-.38,1.16-.81,2.39-1.14,3.5-.63,2.05.03,2.29,2.59,2.48l.03,1.08-7.71.19-.03-1.08c2-.3,2.51-.58,3.54-3.36l6.22-16.76,1.35-.29c2.17,5.47,4.5,11.23,6.68,16.58,1.2,2.88,1.49,3.1,3.64,3.31l.03,1.08-8.78.22ZM264.9,425.03c-.9,2.48-1.8,4.91-2.6,7.33l5.39-.13-2.79-7.2Z"/>
      <path class="cls-5" d="M297.69,431.99c-.04,1.26-.43,4.73-.59,5.67l-15.32,2.37-.17-1.07c2.78-.66,3-.89,2.59-3.56l-1.89-12.21c-.41-2.67-.76-2.84-3.22-2.67l-.17-1.07,9.37-1.45.17,1.07c-2.45.62-2.75.86-2.33,3.53l1.93,12.46c.28,1.8.51,2.45,2.28,2.21.06.01,1.8-.24,1.95-.27,1.73-.27,2.16-.65,2.78-1.6.56-.8,1.12-2.25,1.46-3.58l1.17.16Z"/>
      <path class="cls-5" d="M328.69,422.95c.11.86.43,4.5.44,5.46l-15.34,5.26-.34-1c2.68-1.2,2.81-1.46,1.95-3.98l-4.01-11.68c-.9-2.61-1.31-2.66-3.5-2.12l-.35-1.02,9.62-3.3c3.06-1.05,4.15-1.46,4.54-1.62.24.61,1.21,2.96,1.94,4.7l-1.03.52c-.62-.93-1.42-1.81-2.06-2.23-.78-.56-1.34-.58-2.98-.02l-2.28.78c-1.07.37-1.15.47-.82,1.45l2.21,6.44,3.1-1.06c1.89-.65,1.99-1.19,1.68-3.45l1.09-.38,2.25,6.56-1.09.38c-1.21-2.06-1.57-2.32-3.47-1.67l-3.07,1.05,1.88,5.48c.72,2.1,1.15,2.48,2.91,1.91l2.38-.81c1.75-.6,2.07-.97,2.45-2,.42-1.03.64-2.4.76-3.54l1.13-.1Z"/>
      <path class="cls-5" d="M335.06,402.92c3.78-1.92,6.8-2.48,9.47-1.7,2.12.62,4.21,2.06,5.65,4.89,1.68,3.29,1.62,6.56.27,9.33-1.31,2.69-3.66,4.81-7,6.51l-7.42,3.78-.49-.96c2.17-1.34,2.25-1.68,1.06-4.04l-5.6-11.01c-1.23-2.41-1.65-2.44-3.89-1.53l-.49-.96,8.45-4.3ZM339.93,418.77c1.05,2.06,2.03,2.38,4.13,1.32,4.29-2.19,5.15-6.35,2.48-11.6-1.45-2.85-3.5-4.78-5.79-5.22-1.78-.44-3.51-.02-5.42.95-1.13.58-1.58,1.07-1.69,1.37-.14.36,0,.82.47,1.75l5.82,11.44Z"/>
      <path class="cls-5" d="M367.48,383.47c-1.55,1.33-1.71,2.15-1.05,3.24.46.76,1.09,1.75,2.55,3.76l2.3,3.19c1.71,2.37,2.94,4.79,2.58,7.43-.3,2.12-1.75,3.92-3.58,5.23-1.64,1.18-3.56,2.05-5.43,1.96-2.36-.06-4.29-1.18-6.41-4.13l-4.75-6.57c-1.71-2.37-2.06-2.38-4.19-1.11l-.63-.88,7.59-5.48.63.88c-1.87,1.6-1.96,1.95-.25,4.32l4.87,6.75c2.32,3.21,5.29,4.06,8.18,1.97,3.29-2.38,2.93-5.58.02-9.61l-2.19-3.03c-1.44-2-2.21-2.89-2.8-3.6-.95-1.12-1.86-.95-3.79.29l-.63-.88,6.35-4.59.63.88Z"/>
      <path class="cls-5" d="M393.82,377.94c.78,1.44,1.85,3.73,2.24,4.84-.48.74-1.9,2.98-3.63,4.68-5.91,5.77-12.29,4.49-15.96.73-4.6-4.71-4.14-11.42,1.22-16.65,1.98-1.93,4.13-3.14,4.85-3.68,1.14.96,2.84,2.38,4.04,3.27l-.69.98c-2.13-1.23-3.62-1.49-5.29-.8-.8.31-1.78,1.03-2.48,1.72-3.48,3.39-2.55,7.91,1.02,11.56,4.16,4.26,9.13,4.95,12.46,1.7,2.06-2.02,2.29-4.25,1.12-7.87l1.1-.48Z"/>
      <path class="cls-5" d="M409.18,367.43l-.86-.66c1.02-1.78.8-2.06-.51-2.51-1.06-.36-2.58-.83-4.13-1.33l-3.94,5.13c.66,1.02,1.35,2.13,2.01,3.09,1.2,1.78,1.8,1.42,3.56-.45l.86.66-4.7,6.12-.86-.66c1.02-1.75,1.12-2.32-.39-4.86l-9.14-15.37.62-1.23c5.62,1.75,11.56,3.55,17.1,5.21,2.99.88,3.35.79,4.86-.76l.86.66-5.35,6.97ZM394.79,360.09c1.36,2.26,2.69,4.49,4.07,6.63l3.28-4.28-7.36-2.35Z"/>
      <path class="cls-5" d="M411.42,335.55c-1.3-.39-2.6-.47-3.19-.44-.92.1-1.27.21-2.21,1.8l-1.25,2.11,13.08,7.75c2.25,1.33,2.62,1.2,4.28-1.19l.93.55-5.17,8.73-.93-.55c1.25-2.52,1.19-2.88-1.08-4.22l-13.08-7.75-1.16,1.97c-.91,1.53-.95,2.1-.53,3.03.31.68.99,1.53,1.85,2.52l-.57.97c-1.78-1.3-3.67-2.67-5.03-3.56l.45-.76c.89-.03,1.1-.34,1.58-1.14l6.49-10.96c.45-.75.49-1.17.24-1.92l.44-.75c1.21.7,3.54,1.93,5.34,2.81l-.49,1.02Z"/>
      <path class="cls-5" d="M427.82,336.96l-.98-.45c.81-2.37.77-2.69-1.69-3.81l-11.25-5.1c-2.46-1.12-2.78-.93-4.01,1.23l-.98-.45,3.89-8.57.99.45c-.8,2.37-.75,2.71,1.71,3.83l11.25,5.1c2.45,1.11,2.7.92,3.98-1.25l.98.45-3.89,8.57Z"/>
      <path class="cls-5" d="M417.54,305.34c1.73-5.49,7.25-8.83,13.28-6.93,6.51,2.05,9.16,7.9,7.36,13.61-1.89,6.01-7.71,8.97-13.54,7.14-5.3-1.67-9.23-7.05-7.09-13.81ZM418.65,306.25c-1.01,3.21,1.16,6.73,6.66,8.46,5.33,1.68,10.42.63,11.74-3.56,1-3.17-1.02-6.48-6.7-8.27-6.16-1.94-10.54-.32-11.7,3.38Z"/>
      <path class="cls-5" d="M426.39,269.78c-.05,2,.23,2.68,1.65,2.99,1.14.25,2.29.5,5.11.93l12.61,1.9-.24,1.57-18.05,10.88,7.41,1.12c2.78.42,4.09.54,5.02.59,1.48.12,2.23-.5,2.73-2.79l1.07.16-1.17,7.78-1.07-.16c.12-1.88-.24-2.73-1.72-3.12-1.08-.28-2.3-.53-5.1-.95l-7.69-1.16c-.99-.15-1.63-.18-2.49.29-.88.46-1.11,1.17-1.46,2.55l-1.07-.16.85-5.66,16.54-10.31-6.41-.96c-2.82-.42-3.98-.55-5.08-.62-1.39-.11-2.07.38-2.62,2.95l-1.07-.16,1.17-7.81,1.07.16Z"/>
    </g>
  </g>
  <g>
    <g>
      <path class="cls-7" d="M568,379.48h-16.49v12.86h18.44v6.56h-26.42v-43.76h25.45v6.56h-17.47v11.3h16.49v6.49Z"/>
      <path class="cls-7" d="M580.21,355.13h7.99v37.07h17.98v6.69h-25.97v-43.76Z"/>
      <path class="cls-7" d="M639.94,379.48h-16.49v12.86h18.44v6.56h-26.42v-43.76h25.45v6.56h-17.47v11.3h16.49v6.49Z"/>
      <path class="cls-7" d="M662.66,398.89l-14.15-43.76h8.7l5.97,19.87c1.69,5.52,3.12,10.65,4.29,15.97h.13c1.17-5.19,2.73-10.52,4.48-15.84l6.36-20h8.51l-15.13,43.76h-9.15Z"/>
      <path class="cls-7" d="M700.12,386.49l-3.77,12.4h-8.25l14.02-43.76h10.19l14.22,43.76h-8.57l-3.96-12.4h-13.89ZM712.66,380.45l-3.44-10.78c-.84-2.66-1.56-5.65-2.21-8.18h-.13c-.65,2.53-1.3,5.58-2.08,8.18l-3.38,10.78h11.23Z"/>
      <path class="cls-7" d="M739.01,361.82h-12.47v-6.69h33.05v6.69h-12.6v37.07h-7.99v-37.07Z"/>
      <path class="cls-7" d="M792.45,379.48h-16.49v12.86h18.44v6.56h-26.42v-43.76h25.45v6.56h-17.47v11.3h16.49v6.49Z"/>
      <path class="cls-7" d="M829.32,355.13v43.76h-7.99v-43.76h7.99Z"/>
      <path class="cls-7" d="M841.72,398.89v-43.76h9.09l11.3,18.76c2.92,4.87,5.45,9.93,7.47,14.67h.13c-.52-5.84-.71-11.49-.71-18.18v-15.26h7.4v43.76h-8.25l-11.43-19.22c-2.79-4.8-5.71-10.19-7.86-15.13l-.19.06c.32,5.65.39,11.43.39,18.63v15.65h-7.34Z"/>
      <path class="cls-7" d="M897.23,361.82h-12.47v-6.69h33.05v6.69h-12.6v37.07h-7.99v-37.07Z"/>
      <path class="cls-7" d="M950.66,379.48h-16.49v12.86h18.44v6.56h-26.42v-43.76h25.45v6.56h-17.47v11.3h16.49v6.49Z"/>
      <path class="cls-7" d="M962.87,355.72c2.99-.52,7.47-.91,12.08-.91,6.3,0,10.58,1.04,13.5,3.51,2.4,2.01,3.77,5.06,3.77,8.77,0,5.65-3.83,9.48-7.92,10.97v.19c3.12,1.17,5,4.22,6.1,8.44,1.36,5.45,2.53,10.52,3.44,12.21h-8.25c-.65-1.3-1.69-4.87-2.92-10.32-1.23-5.71-3.31-7.53-7.86-7.66h-4.03v17.98h-7.92v-43.18ZM970.79,375.06h4.74c5.39,0,8.76-2.86,8.76-7.21,0-4.8-3.38-7.01-8.57-7.01-2.53,0-4.16.2-4.93.39v13.83Z"/>
      <path class="cls-7" d="M1003.05,398.89v-43.76h9.09l11.3,18.76c2.92,4.87,5.45,9.93,7.47,14.67h.13c-.52-5.84-.71-11.49-.71-18.18v-15.26h7.4v43.76h-8.25l-11.43-19.22c-2.79-4.8-5.71-10.19-7.86-15.13l-.2.06c.33,5.65.39,11.43.39,18.63v15.65h-7.34Z"/>
      <path class="cls-7" d="M1058.96,386.49l-3.77,12.4h-8.25l14.02-43.76h10.19l14.22,43.76h-8.57l-3.96-12.4h-13.89ZM1071.49,380.45l-3.44-10.78c-.84-2.66-1.56-5.65-2.21-8.18h-.13c-.65,2.53-1.3,5.58-2.08,8.18l-3.38,10.78h11.23Z"/>
      <path class="cls-7" d="M1097.84,361.82h-12.47v-6.69h33.05v6.69h-12.6v37.07h-7.99v-37.07Z"/>
      <path class="cls-7" d="M1134.79,355.13v43.76h-7.99v-43.76h7.99Z"/>
      <path class="cls-7" d="M1186.01,376.56c0,14.67-8.89,23.05-20.97,23.05s-20.13-9.41-20.13-22.27,8.44-22.92,20.78-22.92,20.32,9.67,20.32,22.14ZM1153.35,377.21c0,8.9,4.48,15.97,12.14,15.97s12.08-7.14,12.08-16.3c0-8.25-4.09-16.04-12.08-16.04s-12.14,7.34-12.14,16.36Z"/>
      <path class="cls-7" d="M1196.14,398.89v-43.76h9.09l11.3,18.76c2.92,4.87,5.45,9.93,7.47,14.67h.13c-.52-5.84-.71-11.49-.71-18.18v-15.26h7.4v43.76h-8.25l-11.43-19.22c-2.79-4.8-5.71-10.19-7.86-15.13l-.2.06c.33,5.65.39,11.43.39,18.63v15.65h-7.34Z"/>
      <path class="cls-7" d="M1252.04,386.49l-3.77,12.4h-8.25l14.02-43.76h10.19l14.22,43.76h-8.57l-3.96-12.4h-13.89ZM1264.57,380.45l-3.44-10.78c-.84-2.66-1.56-5.65-2.21-8.18h-.13c-.65,2.53-1.3,5.58-2.08,8.18l-3.38,10.78h11.23Z"/>
      <path class="cls-7" d="M1287.81,355.13h7.99v37.07h17.98v6.69h-25.97v-43.76Z"/>
      <path class="cls-7" d="M1364.22,379.48h-16.49v12.86h18.44v6.56h-26.43v-43.76h25.45v6.56h-17.46v11.3h16.49v6.49Z"/>
      <path class="cls-7" d="M1376.43,355.72c3.51-.58,7.99-.91,12.73-.91,8.18,0,13.83,1.69,17.86,5.06,4.22,3.44,6.82,8.63,6.82,16.1s-2.66,13.63-6.82,17.4c-4.35,3.96-11.3,5.97-19.8,5.97-4.67,0-8.18-.26-10.78-.58v-43.05ZM1384.41,392.79c1.1.2,2.79.2,4.42.2,10.39.06,16.56-5.65,16.56-16.75.07-9.67-5.52-15.19-15.52-15.19-2.53,0-4.35.19-5.45.45v31.29Z"/>
      <path class="cls-7" d="M1431.94,355.13v25.52c0,8.57,3.57,12.53,8.96,12.53,5.78,0,9.22-3.96,9.22-12.53v-25.52h7.99v25c0,13.5-6.95,19.48-17.47,19.48s-16.69-5.65-16.69-19.41v-25.06h7.99Z"/>
      <path class="cls-7" d="M1501.86,397.59c-1.88.97-6.04,1.95-11.3,1.95-13.89,0-22.33-8.7-22.33-22.01,0-14.41,10-23.11,23.37-23.11,5.26,0,9.02,1.1,10.65,1.95l-1.75,6.36c-2.08-.91-4.93-1.69-8.57-1.69-8.89,0-15.32,5.58-15.32,16.1,0,9.61,5.65,15.78,15.26,15.78,3.25,0,6.62-.65,8.7-1.62l1.3,6.3Z"/>
      <path class="cls-7" d="M1521.14,386.49l-3.77,12.4h-8.25l14.02-43.76h10.19l14.22,43.76h-8.57l-3.96-12.4h-13.89ZM1533.67,380.45l-3.44-10.78c-.84-2.66-1.56-5.65-2.21-8.18h-.13c-.65,2.53-1.3,5.58-2.08,8.18l-3.38,10.78h11.23Z"/>
      <path class="cls-7" d="M1560.03,361.82h-12.47v-6.69h33.05v6.69h-12.6v37.07h-7.99v-37.07Z"/>
      <path class="cls-7" d="M1596.97,355.13v43.76h-7.99v-43.76h7.99Z"/>
      <path class="cls-7" d="M1648.2,376.56c0,14.67-8.89,23.05-20.97,23.05s-20.13-9.41-20.13-22.27,8.44-22.92,20.78-22.92,20.32,9.67,20.32,22.14ZM1615.54,377.21c0,8.9,4.48,15.97,12.14,15.97s12.08-7.14,12.08-16.3c0-8.25-4.09-16.04-12.08-16.04s-12.14,7.34-12.14,16.36Z"/>
      <path class="cls-7" d="M1658.32,398.89v-43.76h9.09l11.3,18.76c2.92,4.87,5.45,9.93,7.47,14.67h.13c-.52-5.84-.71-11.49-.71-18.18v-15.26h7.4v43.76h-8.25l-11.43-19.22c-2.79-4.8-5.71-10.19-7.86-15.13l-.2.06c.33,5.65.39,11.43.39,18.63v15.65h-7.34Z"/>
    </g>
    <g>
      <path class="cls-7" d="M598.04,168.8l8.42-10.1,14.1,10.94v3.37h-20.84v32.83h3.37l4.63-7.37,10.52,7.37c2.1,1.55,3.12,2.7,3.05,3.47-.07.77-1.23,1.72-3.47,2.84v42.73l-14.31,2.32v-6.95h-3.79v36.2h3.79l7.79-10.73,12.84,11.16v2.32l10.94-12.63-10.52,1.68v-93.24l19.78,9.47,1.05-23.57h-20.63l-1.89-4.21h42.52l11.16-13.26,15.58,14.73v2.74h-25.26l-12.42,23.57h10.1l6.52-10.1,16.84,10.52c2.24,1.83,3.37,3.3,3.37,4.42,0,.84-1.89,2.04-5.68,3.58v71.14l-18.52,1.89c8.42,1.12,14.66,3.26,18.73,6.42,4.07,3.16,6.1,7.33,6.1,12.52,0,3.09-.84,5.65-2.53,7.68-1.68,2.03-4.07,3.05-7.16,3.05-2.81,0-4.95-1.26-6.42-3.79-1.47-2.53-3.16-5.54-5.05-9.05-1.89-3.51-3.89-6.38-6-8.63-2.1-2.24-4.49-4.28-7.16-6.1l1.26-3.16,5.68.63v-3.79h-20.63v3.37l-2.1.42,11.37,6.73c1.26.84,2.21,1.68,2.84,2.53.63.84.81,1.61.53,2.32-.28.7-1.02,1.19-2.21,1.47-1.19.28-2.84.28-4.95,0-6.03,3.93-12.14,7.23-18.31,9.89-6.18,2.66-13.75,5.68-22.73,9.05l-2.1-3.79c7.29-5.47,12.7-9.82,16.21-13.05h-60.41v9.26l-18.52,3.58v-146.07l19.36,11.37h35.15ZM584.57,173.01h-22.52v113.45h22.52v-47.99l16,7.58h2.95v-35.99h-3.79v6.53l-15.15,2.74v-46.3ZM580.78,202.69v60.41l-13.47,2.32v-70.51l12.42,1.89c2.95.56,4.42,1.19,4.42,1.89,0,1.55-1.12,2.88-3.37,4ZM643.93,198.69v19.79h20.63v-19.79h-20.63ZM643.93,222.69v18.73h20.63v-18.73h-20.63ZM643.93,245.63v21.89h20.63v-21.89h-20.63Z"/>
      <path class="cls-7" d="M769.79,173.01l7.37-11.16,12,12.21v3.16h-15.79v40.62l6.31-11.16,9.68,12.42v2.95h-16v39.99l14.1-2.32c1.26-8.7,2.14-17.92,2.63-27.68.49-9.75.81-22.34.95-37.78h-9.47l-1.89-4.21h11.37v-35.15l18.94,1.47c2.1,0,3.75.28,4.95.84,1.19.56,1.82,1.26,1.89,2.1.07.84-.42,1.68-1.47,2.53s-2.7,1.68-4.95,2.53v25.68h7.79l6.1-10.31,13.89,9.47c3.23,2.11,4.84,3.72,4.84,4.84,0,1.4-1.68,2.74-5.05,4-.42,36.76-.95,60.79-1.58,72.09-.63,11.3-1.76,18.7-3.37,22.21-1.61,3.51-3.86,6.03-6.74,7.58-2.88,1.54-7.05,2.32-12.52,2.32-2.53,0-3.89-.95-4.1-2.84s-.49-4.1-.84-6.63c-.35-2.53-1.33-4.35-2.95-5.47-1.61-1.12-4.25-1.61-7.89-1.47v-4.21h17.05c.7-8,1.3-18,1.79-29.99.49-12,.95-31.11,1.37-57.35h-7.79c0,16-.21,27.82-.63,35.46-.42,7.65-1.09,14.03-2,19.15-.91,5.12-2.1,9.75-3.58,13.89-1.47,4.14-3.61,8.49-6.42,13.05-2.81,4.56-6.6,9.19-11.37,13.89-4.77,4.7-11.58,9.92-20.42,15.68l-2.1-2.74c10.66-11.22,17.96-23.01,21.89-35.36l-32.83,18.1c-1.4,3.65-2.67,5.44-3.79,5.37-1.12-.07-2.46-1.93-4-5.58l-6.31-17.26,14.31-2.53v-43.36h-10.31l-1.89-4.21h12.21v-40.62h-12l-1.89-4.21h30.52ZM864.08,179.96h7.16l6.1-10.52,11.58,7.37c4.07,2.81,6.1,4.84,6.1,6.1,0,1.55-1.76,3.16-5.26,4.84v107.76l-18.52,3.16v-16.21h-8.84v17.89l-17.68,2.74v-133.65l19.36,10.52ZM871.24,184.17h-8.84v94.08h8.84v-94.08Z"/>
      <path class="cls-7" d="M968.27,167.12h100.4l6.73-11.79,16.84,10.95c3.22,2.39,4.84,4.21,4.84,5.47,0,1.83-2.11,3.51-6.31,5.05v126.5l-21.05,3.58v-6.95h-101.66v4.21l-21.05,3.58v-151.96l21.26,11.37ZM1069.72,171.33h-101.66v90.93c16-.56,34.52-1.68,55.57-3.37l.42,3.16c-13.47,6.03-27.71,11.86-42.73,17.47-1.12,3.65-2.31,5.51-3.58,5.58-1.26.07-2.67-1.86-4.21-5.79l-5.47-16.21v32.62h101.66v-12.42c-1.26,2.25-2.67,4.1-4.21,5.58-1.55,1.47-3.09,2.21-4.63,2.21-3.93,0-8.07-2-12.42-6-4.35-4-8.56-9.22-12.63-15.68-5.61,4.49-11.37,8.7-17.26,12.63-5.89,3.93-11.93,7.58-18.1,10.94l-2.11-3.58c5.61-3.79,10.91-8.28,15.89-13.47,4.98-5.19,10.21-11.22,15.68-18.1-2.39-5.05-4.31-10.45-5.79-16.21-1.47-5.75-2.49-11.65-3.05-17.68l-4,1.26v27.36l-16.84,2.74v-8h-8.63v7.16l-16.84,3.16v-48.41l14.73,8.21h11.37l5.26-7.79,14.31,9.89-1.26-16h-47.36l-2.1-4.21h49.04l-.42-24.63c14.73,1.26,23.43,2.32,26.1,3.16,5.61-.42,9.61.63,12,3.16,2.38,2.53,3.08,5.61,2.1,9.26l11.16,9.26v-28.2ZM1000.26,221.63h-8.63v21.47h8.63v-21.47ZM1047.62,199.32l2.74-3.37c-2.53-1.12-4.53-3.47-6-7.05-1.47-3.58-2.77-5.79-3.89-6.63l-3.16,1.68v15.37h10.31ZM1069.72,203.53h-32.41c.42,11.65,2.03,22.59,4.84,32.83,2.66-7.29,5.12-15.29,7.37-23.99l14.31,8.63c2.38,1.68,3.58,3.16,3.58,4.42,0,1.12-1.76,2.25-5.26,3.37-1.54,4.07-3.44,8.18-5.68,12.31-2.25,4.14-4.84,8.6-7.79,13.37,1.69,2.53,3.58,4.77,5.68,6.74l9.05-13.68,3.16,2.11c-1.54,4.63-2.53,8.21-2.95,10.73-.42,2.53-.53,5.02-.32,7.47.21,2.46.77,4.88,1.68,7.26.91,2.39,2.49,4.84,4.74,7.37v-78.93Z"/>
      <path class="cls-7" d="M1223.16,165.44l-3.79,7.79h6.1l6.52-8.84,16.42,11.37c-.84-4.07-1.34-9.05-1.47-14.94l3.79-.63c.84,7.86,2.56,14.7,5.16,20.52,2.59,5.82,6,11.33,10.21,16.52,2.38-6.03,4.49-13.26,6.31-21.68h-12.21l-2.32-4.21h14.1l6.31-9.47,11.58,10.1c4.07,3.23,6,5.51,5.79,6.84-.21,1.33-2.49,2.28-6.84,2.84-5.19,7.02-11.51,13.61-18.94,19.79,4.21,4.49,8.91,8.63,14.1,12.42,5.19,3.79,10.87,7.44,17.05,10.94l-.42,3.16c-3.51.28-6.6,1.83-9.26,4.63-2.67,2.81-4.28,6.03-4.84,9.68-7.02-5.75-12.21-10.56-15.58-14.42-3.37-3.86-6.52-8.35-9.47-13.47-2.95-5.12-5.47-10.21-7.58-15.26-2.1-5.05-3.72-11.22-4.84-18.52l-3.79,1.68c-4.21,8.28-8.21,15.4-12,21.36-3.79,5.97-8.14,11.68-13.05,17.15h20l9.05-10.73,14.94,12.21v2.74h-42.52l-1.89-3.79c-8.84,8.28-17.68,15.02-26.52,20.21,2.11,5.75,3.16,12.14,3.16,19.15,0,5.05-.63,9.26-1.89,12.63-1.26,3.37-2.95,6-5.05,7.89s-4.39,3.26-6.84,4.1c-2.46.84-5.23,1.26-8.31,1.26-1.4,0-2.18-.63-2.32-1.89-.14-1.26-.28-2.95-.42-5.05-.14-2.11-.6-3.75-1.37-4.95-.77-1.19-1.93-2-3.47-2.42v31.57l-20.21,4.63v-153.44l20.63,11.16h7.37l6.95-10.94c9.26,6.46,16.07,11.51,20.42,15.15l3.37-15.58,16.21,3.79c2.1.42,3.75.95,4.95,1.58,1.19.63,1.86,1.23,2,1.79.14.56-.21,1.12-1.05,1.68-.84.56-2.25,1.19-4.21,1.89ZM1175.38,170.28h-8.63v98.29h11.16c.56-3.65.84-7.58.84-11.79,0-7.29-.74-14.38-2.21-21.26-1.47-6.87-3.97-13.26-7.47-19.15,2.53-14.59,4.63-29.96,6.31-46.09ZM1205.69,221c-1.83-1.26-3.19-3.89-4.1-7.89-.91-4-2.14-6.84-3.68-8.52l-10.52,10.94-2.74-1.89c6.87-12.21,12.42-25.89,16.63-41.04-1.12.84-2.95,1.4-5.47,1.68-6.46,15.3-14.03,29.19-22.73,41.67,8,5.61,14.31,12.91,18.94,21.89,4.35-4.91,8.91-10.52,13.68-16.84ZM1224,270.04c-6.03,6.03-12.42,11.68-19.15,16.94-6.73,5.26-13.75,10.07-21.05,14.42l-2.74-2.1c5.47-6.17,10.42-13.01,14.84-20.52,4.42-7.5,8.52-15.54,12.31-24.1l15.58,7.37c4.21,1.83,6.31,3.4,6.31,4.74s-2.04,2.42-6.1,3.26ZM1256.83,246.05l10.94-13.47,16.21,13.26v4.42h-29.68v38.52c0,3.51-.88,6.56-2.63,9.16-1.76,2.59-3.89,4.59-6.42,6-2.53,1.4-5.09,2.38-7.68,2.95-2.6.56-5.16.84-7.68.84-2.39,0-3.65-.74-3.79-2.21-.14-1.47-.25-3.51-.32-6.1-.07-2.59-.95-4.7-2.63-6.31-1.68-1.61-4.91-2.77-9.68-3.47v-3.16h19.79v-36.2h-30.31l-2.53-4.21h56.41ZM1209.26,190.06l-8,10.73c4.91.28,9.12,2.32,12.63,6.1l2.74-5.26c-1.4-1.12-2.63-3.12-3.68-6-1.05-2.87-2.28-4.74-3.68-5.58ZM1216.63,177.43l-3.79,7.16c4.35.14,7.58,1.19,9.68,3.16,1.26-3.37,2.38-6.8,3.37-10.31h-9.26ZM1258.3,257.2c13.05,3.09,22.76,6.95,29.15,11.58,6.38,4.63,9.58,10.31,9.58,17.05,0,2.81-.98,5.47-2.95,8-1.97,2.53-4.35,3.79-7.16,3.79-2.95,0-5.02-1.05-6.21-3.16-1.19-2.1-2.67-5.37-4.42-9.79-1.76-4.42-3.97-8.49-6.63-12.21-2.67-3.72-7.02-7.82-13.05-12.31l1.68-2.95Z"/>
      <path class="cls-7" d="M1395.96,177.64l9.05-10.94,6.74,5.26,6.73-15.37,7.79,4c10.1,4.91,15.15,8.07,15.15,9.47,0,1.55-2.39,2.81-7.16,3.79-3.51,5.19-7.51,10.84-12,16.94-4.49,6.1-8.07,10.63-10.73,13.58h7.58l8.63-10.52,10.73,8.63c2.53-12.49,4.35-27.71,5.47-45.67l16.63,2.32c3.93.42,6.98.98,9.16,1.68,2.17.7,3.47,1.44,3.89,2.21.42.77.03,1.65-1.16,2.63-1.19.98-2.98,2.1-5.37,3.37-2.67,7.16-5.97,15.58-9.89,25.26h19.15l9.68-11.58,16.42,13.68v2.1h-8.84c-2.39,15.44-4.88,28.45-7.47,39.04-2.6,10.6-6.42,20.45-11.47,29.57,4.49,3.65,9.19,7.02,14.1,10.1,4.91,3.09,9.96,5.82,15.15,8.21l-.84,4.21c-3.65.56-6.81,2.07-9.47,4.53-2.67,2.46-4.35,6.42-5.05,11.89-5.61-4.63-10.67-9.12-15.15-13.47-4.49-4.35-8.21-8.63-11.16-12.84-6.46,6.31-15.4,12.14-26.84,17.47-11.44,5.33-22.35,9.12-32.73,11.37l-1.68-3.79c10.52-3.79,20.45-9.37,29.78-16.73,9.33-7.37,16.87-15.75,22.63-25.15-2.95-5.75-5.23-11.68-6.84-17.79-1.61-6.1-2.91-13.01-3.89-20.73-3.79,6.6-7.72,12.77-11.79,18.52l-3.79-1.68,2.95-8.42c-1.83.84-4.14,1.19-6.95,1.05l-20.63,13.26v8.63l32.83-2.1.63,3.58-33.47,9.26v23.36c0,4.49-1.02,7.79-3.05,9.89-2.04,2.1-4.46,3.65-7.26,4.63-2.81.98-5.26,1.72-7.37,2.21-2.1.49-4.07.74-5.89.74-1.68,0-2.91-.28-3.68-.84-.77-.56-1.26-1.26-1.47-2.1-.21-.84-.28-2.04-.21-3.58.07-1.55.07-3.16,0-4.84-.07-1.68-1.12-3.33-3.16-4.95-2.04-1.61-5.65-2.63-10.84-3.05v-4.42h21.05v-11.16l-20.21,5.26c-1.68,2.67-3.02,3.79-4,3.37-.98-.42-2.53-2.95-4.63-7.58l-6.1-14.52,34.94-1.68v-14.94l13.05,1.26,9.68-16.21h-13.26c-6.6,5.75-13.37,11.12-20.31,16.1-6.95,4.98-14.07,9.58-21.36,13.79l-2.53-3.16c5.19-4.07,10.21-8.35,15.05-12.84,4.84-4.49,9.37-9.12,13.58-13.89h-21.26l-1.26-4.21h26.1c4.21-4.91,8.07-9.75,11.58-14.52h-39.99l-1.47-4.21h24.21v-22.52h-19.36l-1.47-4.21h20.84v-22.1l17.05,2.1c6.45.7,10,1.62,10.63,2.74.63,1.12-1.3,2.81-5.79,5.05v12.21h1.68ZM1406.27,181.85h-12v19.57c4.21-6.31,8.21-12.84,12-19.57ZM1430.48,231.74c2.8-8,4.98-15.71,6.52-23.15h-28.62l-13.68,14.52h10.31l6.52-7.37,9.68,6.74c6.17,4.35,9.26,7.44,9.26,9.26ZM1471.1,198.48h-15.79l-9.26,19.36c.98,5.61,2.66,11.19,5.05,16.73,2.38,5.54,5.33,10.84,8.84,15.89,2.53-6.74,4.63-14.31,6.31-22.73s3.3-18.17,4.84-29.26Z"/>
      <path class="cls-7" d="M1636.11,166.49v8.84h37.25l10.73-13.89,17.05,13.89v4.21h-73.67l-21.05,22.94,49.67-1.26c-5.05-3.51-11.37-6.8-18.94-9.89l1.26-3.79c8.28.7,15.64,1.72,22.1,3.05,6.45,1.33,12.24,3.09,17.36,5.26,5.12,2.18,9.19,4.81,12.21,7.89,3.02,3.09,4.53,6.88,4.53,11.37,0,2.67-.98,5.26-2.95,7.79-1.97,2.53-4.14,3.79-6.53,3.79-2.1,0-3.93-.77-5.47-2.32-1.55-1.54-3.26-3.47-5.16-5.79-1.89-2.31-3.68-4.35-5.37-6.1-1.68-1.75-3.44-3.54-5.26-5.37-19.65,4.07-45.54,8.49-77.67,13.26l12.63,6.31h51.15l6.74-11.58,17.05,11.37c4.91,3.23,7.4,5.72,7.47,7.47.07,1.76-2.14,3.54-6.63,5.37v56.2c0,3.65-2.46,6.7-7.37,9.16-4.91,2.45-10.25,3.68-16,3.68-1.97,0-3.44-.25-4.42-.74-.98-.49-1.58-1.12-1.79-1.89-.21-.77-.28-1.86-.21-3.26.07-1.4.11-2.88.11-4.42s-1.02-3.23-3.05-5.05c-2.04-1.82-5.86-3.08-11.47-3.79v-4.42h21.47v-13.68h-51.99v32.41l-22.73,4v-85.66l-1.05.42c-1.68,3.23-3.23,4.77-4.63,4.63-1.4-.14-3.58-2.66-6.53-7.58l-9.26-16.84h38.31l4.63-22.94h-47.78l-2.1-4.21h63.77v-20l20.21,1.47c3.08.14,5.47.53,7.16,1.16,1.68.63,2.59,1.37,2.74,2.21.14.84-.39,1.83-1.58,2.95-1.19,1.12-2.84,2.25-4.95,3.37ZM1599.91,230.89v15.15h51.99v-15.15h-51.99ZM1599.91,250.26v16.63h51.99v-16.63h-51.99Z"/>
    </g>
    <line class="cls-1" x1="543.53" y1="332.41" x2="1701.32" y2="332.41"/>
  </g>
</svg>